<svg width="22" height="22" viewBox="0 0 22 22" fill="none" xmlns="http://www.w3.org/2000/svg">
<path d="M11 17.75C10.59 17.75 10.25 17.41 10.25 17V14C10.25 13.59 10.59 13.25 11 13.25C11.41 13.25 11.75 13.59 11.75 14V17C11.75 17.41 11.41 17.75 11 17.75Z" fill="white"/>
<path d="M16.6 21.56H5.39999C3.57999 21.56 1.91999 20.16 1.61999 18.37L0.289991 10.4C0.069991 9.16 0.679991 7.57001 1.66999 6.78001L8.59999 1.23001C9.93999 0.150005 12.05 0.160005 13.4 1.24001L20.33 6.78001C21.31 7.57001 21.91 9.16 21.71 10.4L20.38 18.36C20.08 20.13 18.38 21.56 16.6 21.56ZM10.99 1.93001C10.46 1.93001 9.92999 2.09001 9.53999 2.40001L2.60999 7.96001C2.04999 8.41001 1.64999 9.45 1.76999 10.16L3.09999 18.12C3.27999 19.17 4.32999 20.06 5.39999 20.06H16.6C17.67 20.06 18.72 19.17 18.9 18.11L20.23 10.15C20.34 9.45 19.94 8.39001 19.39 7.95001L12.46 2.41001C12.06 2.09001 11.52 1.93001 10.99 1.93001Z" fill="white"/>
</svg>