<svg width="22" height="22" viewBox="0 0 22 22" fill="none" xmlns="http://www.w3.org/2000/svg">
<path d="M14 21.75H8C2.57 21.75 0.25 19.43 0.25 14V8C0.25 2.57 2.57 0.25 8 0.25H13C13.41 0.25 13.75 0.59 13.75 1C13.75 1.41 13.41 1.75 13 1.75H8C3.39 1.75 1.75 3.39 1.75 8V14C1.75 18.61 3.39 20.25 8 20.25H14C18.61 20.25 20.25 18.61 20.25 14V9C20.25 8.59 20.59 8.25 21 8.25C21.41 8.25 21.75 8.59 21.75 9V14C21.75 19.43 19.43 21.75 14 21.75Z" fill="#FDD9D9"/>
<path d="M21 9.748H17C13.58 9.748 12.25 8.418 12.25 4.99801V0.998005C12.25 0.698005 12.43 0.418005 12.71 0.308005C12.99 0.188005 13.31 0.258005 13.53 0.468005L21.53 8.46801C21.6343 8.57308 21.7052 8.70662 21.7338 8.85186C21.7624 8.9971 21.7474 9.14755 21.6908 9.28432C21.6342 9.42109 21.5384 9.53807 21.4155 9.62057C21.2926 9.70307 21.148 9.7474 21 9.748ZM13.75 2.80801V4.99801C13.75 7.57801 14.42 8.24801 17 8.24801H19.19L13.75 2.80801Z" fill="#FDD9D9"/>
</svg>
