<svg width="22" height="22" viewBox="0 0 22 22" fill="none" xmlns="http://www.w3.org/2000/svg">
<path d="M14 21.75H8C2.57 21.75 0.25 19.43 0.25 14V8C0.25 2.57 2.57 0.25 8 0.25H14C19.43 0.25 21.75 2.57 21.75 8V14C21.75 19.43 19.43 21.75 14 21.75ZM8 1.75C3.39 1.75 1.75 3.39 1.75 8V14C1.75 18.61 3.39 20.25 8 20.25H14C18.61 20.25 20.25 18.61 20.25 14V8C20.25 3.39 18.61 1.75 14 1.75H8Z" fill="#FDD9D9"/>
<path d="M14.58 18.252C14.17 18.252 13.83 17.912 13.83 17.502V13.602C13.83 13.192 14.17 12.852 14.58 12.852C14.99 12.852 15.33 13.192 15.33 13.602V17.502C15.33 17.912 14.99 18.252 14.58 18.252ZM14.58 7.2C14.17 7.2 13.83 6.86 13.83 6.45V4.5C13.83 4.09 14.17 3.75 14.58 3.75C14.99 3.75 15.33 4.09 15.33 4.5V6.45C15.33 6.86 14.99 7.2 14.58 7.2Z" fill="#FDD9D9"/>
<path d="M14.58 12.4C13.9174 12.4 13.2698 12.2035 12.7189 11.8354C12.1679 11.4673 11.7386 10.9441 11.485 10.332C11.2315 9.71986 11.1651 9.04628 11.2944 8.39645C11.4236 7.74661 11.7427 7.1497 12.2112 6.68119C12.6797 6.21269 13.2766 5.89363 13.9265 5.76437C14.5763 5.63511 15.2499 5.70145 15.862 5.955C16.4741 6.20856 16.9973 6.63794 17.3654 7.18884C17.7335 7.73974 17.93 8.38743 17.93 9.05C17.93 10.9 16.42 12.4 14.58 12.4ZM14.58 7.2C13.56 7.2 12.73 8.03 12.73 9.05C12.73 10.07 13.56 10.9 14.58 10.9C15.6 10.9 16.43 10.07 16.43 9.05C16.43 8.03 15.59 7.2 14.58 7.2ZM7.42001 18.25C7.01001 18.25 6.67001 17.91 6.67001 17.5V15.55C6.67001 15.14 7.01001 14.8 7.42001 14.8C7.83001 14.8 8.17001 15.14 8.17001 15.55V17.5C8.17001 17.91 7.84001 18.25 7.42001 18.25ZM7.42001 9.15C7.01001 9.15 6.67001 8.81 6.67001 8.4V4.5C6.67001 4.09 7.01001 3.75 7.42001 3.75C7.83001 3.75 8.17001 4.09 8.17001 4.5V8.4C8.17001 8.81 7.84001 9.15 7.42001 9.15Z" fill="#FDD9D9"/>
<path d="M7.42001 16.302C6.98008 16.302 6.54446 16.2154 6.13802 16.047C5.73158 15.8786 5.36228 15.6319 5.0512 15.3208C4.74012 15.0097 4.49336 14.6404 4.32501 14.234C4.15666 13.8276 4.07001 13.3919 4.07001 12.952C4.07001 12.5121 4.15666 12.0765 4.32501 11.67C4.49336 11.2636 4.74012 10.8943 5.0512 10.5832C5.36228 10.2721 5.73158 10.0254 6.13802 9.85701C6.54446 9.68865 6.98008 9.602 7.42001 9.60201C8.30848 9.60201 9.16057 9.95495 9.78882 10.5832C10.4171 11.2114 10.77 12.0635 10.77 12.952C10.77 13.8405 10.4171 14.6926 9.78882 15.3208C9.16057 15.9491 8.30848 16.302 7.42001 16.302ZM7.42001 11.102C6.40001 11.102 5.57001 11.932 5.57001 12.952C5.57001 13.972 6.40001 14.802 7.42001 14.802C8.44001 14.802 9.27001 13.972 9.27001 12.952C9.27001 11.932 8.45001 11.102 7.42001 11.102Z" fill="#FDD9D9"/>
</svg>
